<svg id="Ebene_1" data-name="Ebene 1" xmlns="http://www.w3.org/2000/svg" viewBox="0 0 1080 1080"><defs><style>.cls-1{fill:#2d2e2c;}.cls-2{fill:#fff;}.cls-3{fill:none;stroke:#fff;stroke-miterlimit:10;stroke-width:34.57px;}</style></defs><title>schickmalzzwo-schriftlogo-dunkelgrau</title><rect class="cls-1" width="1080" height="1080"/><path class="cls-2" d="M456.92,376.56h30.8v193H458.38V434.84l2,8.5-28,92.14H415.89l-28-89.48,2.65-11.16V569.6h-30v-193h31.6l32,104.88Z"/><path class="cls-2" d="M547.37,376.56h23.11l46.07,193H583.89l-25-126.53L534,569.6H501.31ZM532.64,508.79h52.57v30.8H532.64Z"/><path class="cls-2" d="M632.79,376.56h32.92v193H632.79ZM646.33,538H715.9v31.6H646.33Z"/><path class="cls-2" d="M440.32,614.23,392.39,746.46h49.26v31.6H358.54V748.85l48.32-132.23H360.93V585h79.39Z"/><path class="cls-2" d="M518.15,585h25.49l20.84,134,9.7-134h33.45l-24.69,193h-31.6l-19.65-124.8-21.11,124.8H479L454.16,585h33.45l9.69,134Z"/><path class="cls-2" d="M646.23,774.67a38.18,38.18,0,0,1-16.93-15.53q-5.85-10.15-5.84-24.5V628.43q0-14.34,5.84-24.56a37.73,37.73,0,0,1,16.93-15.53Q657.32,583,672.85,583t26.62,5.31a37.76,37.76,0,0,1,16.92,15.53q5.85,10.23,5.84,24.56V734.64q0,14.34-5.84,24.5a38.21,38.21,0,0,1-16.92,15.53q-11.1,5.39-26.62,5.38T646.23,774.67Zm35.31-29.54a12.94,12.94,0,0,0,5.51-5.71,20,20,0,0,0,1.86-9v-98a19.67,19.67,0,0,0-1.86-8.89,12.94,12.94,0,0,0-5.51-5.71,17.85,17.85,0,0,0-8.69-2,17.48,17.48,0,0,0-8.63,2,13.08,13.08,0,0,0-5.45,5.71,19.67,19.67,0,0,0-1.86,8.89v98a20,20,0,0,0,1.86,9,13.08,13.08,0,0,0,5.45,5.71,17.48,17.48,0,0,0,8.63,2A17.85,17.85,0,0,0,681.54,745.13Z"/><path class="cls-2" d="M376.26,358.26a18.26,18.26,0,0,1-7.83-7.68,25.05,25.05,0,0,1-2.71-12.07v-4.87l15.41-.12v4.86a7.36,7.36,0,0,0,1.94,5.4,7.16,7.16,0,0,0,5.36,2,6.83,6.83,0,0,0,5.21-1.94,7.37,7.37,0,0,0,1.84-5.3v-7.93a7,7,0,0,0-1.4-4.33,12.94,12.94,0,0,0-3.62-3.19c-1.48-.89-3.48-2-6-3.21-.17-.08-.32-.17-.47-.25s-.3-.17-.47-.25l-.81-.37a52.91,52.91,0,0,1-8.61-5.34,22,22,0,0,1-5.93-7.33,24.14,24.14,0,0,1-2.37-11.23V290.4a24.88,24.88,0,0,1,2.65-11.89,17.86,17.86,0,0,1,7.71-7.58,26.1,26.1,0,0,1,12.17-2.62,25.33,25.33,0,0,1,11.92,2.62,17.71,17.71,0,0,1,7.61,7.64,25.8,25.8,0,0,1,2.62,12.08v5.11l-15.41.19v-5.18a7.87,7.87,0,0,0-1.78-5.46,6.35,6.35,0,0,0-5-2,7.2,7.2,0,0,0-5.21,1.77,6.49,6.49,0,0,0-1.84,4.9v6.06a7.38,7.38,0,0,0,1.34,4.43,12.1,12.1,0,0,0,3.37,3.15q2,1.27,5.64,3.09c.46.2.93.43,1.41.68l1.46.75a.91.91,0,0,1,.22.13l.22.12a68.69,68.69,0,0,1,8.36,5.09,19,19,0,0,1,5.43,6.58A23.09,23.09,0,0,1,411,331v7.55a25.64,25.64,0,0,1-2.65,12.07,18,18,0,0,1-7.71,7.68,25.86,25.86,0,0,1-12.11,2.65A26.37,26.37,0,0,1,376.26,358.26Z"/><path class="cls-2" d="M432.81,358.19a18.09,18.09,0,0,1-7.46-7.89,27.72,27.72,0,0,1-2.59-12.48V291.39a27.71,27.71,0,0,1,2.59-12.47,18.06,18.06,0,0,1,7.46-7.9,26.81,26.81,0,0,1,23.49,0,17.75,17.75,0,0,1,7.46,7.93,28.06,28.06,0,0,1,2.56,12.51v7.3H450.66v-7.3a10.56,10.56,0,0,0-.69-4,5.45,5.45,0,0,0-2.09-2.59,6.07,6.07,0,0,0-3.34-.9,5.9,5.9,0,0,0-3.24.87,5.45,5.45,0,0,0-2.09,2.56,10.15,10.15,0,0,0-.72,4v46.43a9.86,9.86,0,0,0,.72,4,5.37,5.37,0,0,0,2.09,2.53,5.9,5.9,0,0,0,3.24.87,6.16,6.16,0,0,0,3.37-.87,5.26,5.26,0,0,0,2.06-2.53,10.42,10.42,0,0,0,.69-4v-7.3h15.66v7.3a28.06,28.06,0,0,1-2.56,12.51,17.78,17.78,0,0,1-7.46,7.92,26.72,26.72,0,0,1-23.49,0Z"/><path class="cls-2" d="M478.12,269.24H493.6V360H478.12ZM485.49,308h30.39v14.54H485.49Zm20.34-38.75h15.48V360H505.83Z"/><path class="cls-2" d="M549.83,360H534.36V269.24h15.47Z"/><path class="cls-2" d="M572.94,358.19a18,18,0,0,1-7.46-7.89,27.59,27.59,0,0,1-2.59-12.48V291.39a27.57,27.57,0,0,1,2.59-12.47,18,18,0,0,1,7.46-7.9,26.81,26.81,0,0,1,23.49,0,17.81,17.81,0,0,1,7.46,7.93,28.19,28.19,0,0,1,2.55,12.51v7.3H590.78v-7.3a10.56,10.56,0,0,0-.69-4,5.39,5.39,0,0,0-2.09-2.59,6.56,6.56,0,0,0-6.58,0,5.57,5.57,0,0,0-2.09,2.56,10.15,10.15,0,0,0-.72,4v46.43a9.86,9.86,0,0,0,.72,4,5.49,5.49,0,0,0,2.09,2.53,6,6,0,0,0,3.25.87,6.19,6.19,0,0,0,3.37-.87,5.24,5.24,0,0,0,2.05-2.53,10.42,10.42,0,0,0,.69-4v-7.3h15.66v7.3a28.19,28.19,0,0,1-2.55,12.51,17.83,17.83,0,0,1-7.46,7.92,26.72,26.72,0,0,1-23.49,0Z"/><path class="cls-2" d="M618.25,269.24h15.47V360H618.25ZM630.54,318l17.66-48.8h17.47l-35.13,76.32Zm5.68-7.61,10.61-9.3L668.54,360h-17Z"/><circle class="cls-3" cx="540" cy="532.79" r="401"/></svg>